C:\GBW_MyPrograms\KinderuniversiteitApp\Resultaten\Ellis_1010\Aarde\Aarde_v2.mot
version=1
nRows=14
nColumns=29
inDegrees=yes
endheader
                time	         pelvis_tilt	           pelvis_tx	           pelvis_ty	       hip_flexion_l	       hip_flexion_r	        knee_angle_l	        knee_angle_r	       ankle_angle_l	       ankle_angle_r	    lumbar_extension	hamstrings_r/activation	bifemsh_r/activation	glut_max_r/activation	iliopsoas_r/activation	rect_fem_r/activation	  vasti_r/activation	gastroc_r/activation	 soleus_r/activation	tib_ant_r/activation	hamstrings_l/activation	bifemsh_l/activation	glut_max_l/activation	iliopsoas_l/activation	rect_fem_l/activation	  vasti_l/activation	gastroc_l/activation	 soleus_l/activation	tib_ant_l/activation	
          0.96220693	         -8.02833725	          1.26405245	          0.89027370	         -9.21935750	         30.35940249	        -12.25586486	         -7.66012198	          4.89547796	          8.54914284	          1.94011786	          0.22601992	          0.05000000	          0.05697908	          0.05000000	          0.06333113	          0.07466632	          0.05355631	          0.05000000	          0.23104788	          0.05000000	          0.13253241	          0.05000000	          0.53576265	          0.05000000	          0.05000000	          0.19560568	          0.28213269	          0.05000000	
          0.97182900	         -8.03973467	          1.27990903	          0.88980758	         -8.44288074	         29.50070233	        -15.37297822	         -7.79339237	          3.75895913	          8.22402869	          2.31596657	          0.19765550	          0.05866937	          0.10647104	          0.05000000	          0.05457849	          0.06897953	          0.05961703	          0.05801838	          0.21346850	          0.05000002	          0.11421586	          0.05000000	          0.46171795	          0.05000000	          0.05000000	          0.16857214	          0.24314074	          0.05000000	
          0.98145107	         -8.04875343	          1.29572701	          0.88942319	         -7.43221169	         28.63554626	        -18.82413029	         -8.08554318	          2.22174687	          7.86871123	          2.68610435	          0.17033866	          0.06732266	          0.15177645	          0.05000000	          0.05000000	          0.10728841	          0.05137770	          0.05000000	          0.27551768	          0.05000000	          0.09843074	          0.06160526	          0.39790655	          0.05000000	          0.05000000	          0.14527474	          0.20953764	          0.05000000	
          0.99107314	         -8.06069011	          1.31118831	          0.88934675	         -6.17118289	         27.83948093	        -22.55387433	         -8.42817314	          0.23386881	          7.43032995	          3.01615143	          0.14679712	          0.05801838	          0.20781481	          0.05000000	          0.05000000	          0.19157085	          0.05000000	          0.05000000	          0.29791298	          0.05000000	          0.08482719	          0.05309115	          0.34291415	          0.05849617	          0.05000000	          0.12519715	          0.18057864	          0.25632342	
          1.00069521	         -8.07820651	          1.32604220	          0.88962231	         -4.71519259	         27.13806730	        -26.42071676	         -8.85942418	         -1.46454712	          7.06109832	          3.27747422	          0.12650913	          0.05000000	          0.22127653	          0.05000000	          0.05000000	          0.24414152	          0.05000000	          0.05000000	          0.32230441	          0.05000000	          0.07310371	          0.05000000	          0.29552194	          0.15265501	          0.05000000	          0.10789436	          0.15562190	          0.22089842	
          1.01031727	         -8.10307413	          1.34025570	          0.89029955	         -3.18973085	         26.49389997	        -30.07966406	         -9.31272784	         -1.84901770	          6.79920335	          3.46854953	          0.11387583	          0.05000000	          0.21448281	          0.05000000	          0.05000000	          0.26809693	          0.05000000	          0.05000000	          0.32207287	          0.05000000	          0.08338842	          0.05000000	          0.25467954	          0.21917934	          0.05000000	          0.09298290	          0.13411428	          0.28274678	
          1.01993934	         -8.13374560	          1.35394256	          0.89146108	         -1.66834213	         25.85269954	        -33.31455678	         -9.71049571	         -1.73366295	          6.66233890	          3.60286072	          0.10516551	          0.05000000	          0.20696314	          0.05000000	          0.05000000	          0.27062706	          0.05000000	          0.05000000	          0.31736415	          0.05540594	          0.12875907	          0.05000000	          0.21948173	          0.28797827	          0.05000000	          0.08013226	          0.11557911	          0.29189722	
          1.02956141	         -8.16884955	          1.36722439	          0.89306603	         -0.18755884	         25.17187066	        -36.04495970	         -9.98957247	         -1.42666670	          6.62208906	          3.69465940	          0.10116486	          0.05000000	          0.19216127	          0.05000000	          0.05000000	          0.25996233	          0.05000000	          0.05000000	          0.30585090	          0.06993890	          0.17189994	          0.05000000	          0.18914841	          0.33818174	          0.05000000	          0.07235903	          0.09960558	          0.28011729	
          1.03918348	         -8.20625960	          1.38020044	          0.89501417	          1.23806576	         24.42937085	        -38.26991903	        -10.12318145	         -0.97321102	          6.65024375	          3.75406030	          0.09962703	          0.05000000	          0.17567666	          0.05000000	          0.05000000	          0.24260585	          0.05000000	          0.05000000	          0.29249055	          0.07779647	          0.22258955	          0.05000000	          0.16300729	          0.37073887	          0.05000000	          0.07047309	          0.08583966	          0.26640088	
          1.04880555	         -8.24397429	          1.39293879	          0.89719039	          2.61152961	         23.62136911	        -40.03447234	        -10.11275755	         -0.42785657	          6.71455348	          3.78713401	          0.09981625	          0.05000000	          0.16222777	          0.05000000	          0.05000000	          0.22392096	          0.05000000	          0.05000000	          0.27838549	          0.07811905	          0.27784162	          0.05000000	          0.14748471	          0.38579660	          0.05000000	          0.06583665	          0.07397625	          0.24967434	
          1.05842762	         -8.28028953	          1.40548112	          0.89948473	          3.94680277	         22.75327819	        -41.41031367	         -9.97377138	          0.18386243	          6.79223403	          3.79684278	          0.10009091	          0.05000000	          0.15374533	          0.05000000	          0.05000000	          0.20622508	          0.05000000	          0.05000000	          0.26555789	          0.06732267	          0.33606559	          0.05000000	          0.13610502	          0.38702451	          0.05000000	          0.06019849	          0.06375242	          0.23176671	
          1.06804969	         -8.31375263	          1.41785257	          0.90180227	          5.26209304	         21.83266465	        -42.47521637	         -9.72375223	          0.84135856	          6.86709528	          3.78431862	          0.09907514	          0.05000000	          0.14654816	          0.05000000	          0.05000000	          0.19066184	          0.05000000	          0.05000000	          0.25427830	          0.05801839	          0.39652317	          0.05000000	          0.12918020	          0.37837230	          0.05000000	          0.05654337	          0.05494156	          0.21464419	
          1.07767176	         -8.34283099	          1.43006657	          0.90406478	          6.57788748	         20.86771506	        -43.30952283	         -9.38102549	          1.50558683	          6.93122543	          3.74912335	          0.09677333	          0.05000000	          0.13991776	          0.05000000	          0.05000000	          0.17796890	          0.05000000	          0.05000000	          0.24481900	          0.05000000	          0.45545276	          0.05000000	          0.12475922	          0.36301303	          0.05000000	          0.05226640	          0.05000000	          0.20217275	
          1.08729383	         -8.36618455	          1.44212965	          0.90620894	          7.91511369	         19.86636757	        -43.99346594	         -8.96278647	          2.13214745	          6.98161656	          3.69022015	          0.09236249	          0.05000000	          0.13013863	          0.05000000	          0.05000000	          0.16775124	          0.05000000	          0.05000000	          0.23648034	          0.05000000	          0.50885390	          0.05000000	          0.12324420	          0.34436606	          0.05000000	          0.05000000	          0.05000000	          0.19980782	
